{"title":"Mercur S01 E01 - 720p x264 - DAN (ENG SUBS) [BRSHNKV]","magnet":"magnet:?xt=urn:btih:37edd66363138564c5457ff4c0a83d011fe6c9b8&dn=Mercur+S01+E01+-+720p+x264+-+DAN+%28ENG+SUBS%29+%5BBRSHNKV%5D&tr=udp%3A%2F%2Ftracker.leechers-paradise.org%3A6969&tr=udp%3A%2F%2Fzer0day.ch%3A1337&tr=udp%3A%2F%2Fopen.demonii.com%3A1337&tr=udp%3A%2F%2Ftracker.coppersurfer.tk%3A6969&tr=udp%3A%2F%2Fexodus.desync.com%3A6969","uploader":"BRSHNKV","categoryP":"video","categoryS":"hd___tv_shows","size":"527007843","seeders":"6","leechers":"5","description":"Tech: \r\n\r\nFormat : MPEG-4 \r\nFormat profile : Base Media / Version 2 \r\nCodec ID : mp42 \r\nFile size : 503 MiB \r\nDuration : 42mn 6s \r\nOverall bit rate mode : Variable \r\nOverall bit rate : 1 669 Kbps \r\nMovie name : Mercur S01 E01 - x264 [BRSHNKV] \r\nEncoded date : UTC 2018-04-14 09:24:28 \r\nTagged date : UTC 2018-04-14 09:24:28 \r\nWriting application : HandBrake 1.0.2 2017012200 \r\n\r\nVideo \r\nID : 1 \r\nFormat : AVC \r\nFormat/Info : Advanced Video Codec \r\nFormat profile : <a href=\"/cdn-cgi/l/email-protection\" class=\"__cf_email__\" data-cfemail=\"aee3cfc7c0eee29a\">[email&#xA0;protected]</a> \r\nFormat settings, CABAC : Yes \r\nFormat settings, ReFrames : 14 frames \r\nCodec ID : avc1 \r\nCodec ID/Info : Advanced Video Coding \r\nDuration : 42mn 6s \r\nBit rate : 1 500 Kbps \r\nWidth : 1 024 pixels \r\nHeight : 576 pixels \r\nDisplay aspect ratio : 16:9 \r\nFrame rate mode : Constant \r\nFrame rate : 25.000 fps \r\nColor space : YUV \r\nChroma subsampling : 4:2:0 \r\nBit depth : 8 bits \r\nScan type : Progressive \r\nBits/(Pixel*Frame) : 0.102 \r\nStream size : 452 MiB (90%) \r\nWriting library : x264 core 148 r2708 86b7198 \r\nEncoded date : UTC 2018-04-14 09:24:28 \r\nTagged date : UTC 2018-04-14 09:24:28 \r\nColor range : Limited \r\nColor primaries : BT.601 PAL \r\nTransfer characteristics : BT.709 \r\nMatrix coefficients : BT.601 \r\n\r\nAudio \r\nID : 2 \r\nFormat : AAC \r\nFormat/Info : Advanced Audio Codec \r\nFormat profile : LC \r\nCodec ID : 40 \r\nDuration : 42mn 6s \r\nBit rate mode : Variable \r\nBit rate : 163 Kbps \r\nChannel(s) : 2 channels \r\nChannel positions : Front: L R \r\nSampling rate : 48.0 KHz \r\nCompression mode : Lossy \r\nStream size : 49.1 MiB (10%) \r\nTitle : Stereo / Stereo \r\nLanguage : Danish \r\nEncoded date : UTC 2018-04-14 09:24:28 \r\nTagged date : UTC 2018-04-14 09:24:28","last_updated":"2018-04-17T13:18:45.244Z","parsed":{"xt":"urn:btih:37edd66363138564c5457ff4c0a83d011fe6c9b8","dn":"Mercur S01 E01 - 720p x264 - DAN (ENG SUBS) [BRSHNKV]","tr":["udp://exodus.desync.com:6969","udp://open.demonii.com:1337","udp://tracker.coppersurfer.tk:6969","udp://tracker.leechers-paradise.org:6969","udp://zer0day.ch:1337"],"infoHash":"37edd66363138564c5457ff4c0a83d011fe6c9b8","infoHashBuffer":{"type":"Buffer","data":[55,237,214,99,99,19,133,100,197,69,127,244,192,168,61,1,31,230,201,184]},"name":"Mercur S01 E01 - 720p x264 - DAN (ENG SUBS) [BRSHNKV]","announce":["udp://exodus.desync.com:6969","udp://open.demonii.com:1337","udp://tracker.coppersurfer.tk:6969","udp://tracker.leechers-paradise.org:6969","udp://zer0day.ch:1337"],"urlList":[]}}